<svg height="472pt" viewBox="-3 0 471 472" width="472pt" xmlns="http://www.w3.org/2000/svg"><path d="m248.5 136h-32c-4.417969 0-8-3.582031-8-8v-32c0-4.417969 3.582031-8 8-8h32c4.417969 0 8 3.582031 8 8v32c0 4.417969-3.582031 8-8 8zm0 0" fill="#de722a"/><path d="m104.5 264c.015625 24.4375-18.328125 44.984375-42.609375 47.726562-24.28125 2.746094-46.75-13.191406-52.1875-37.011718-5.4375-23.824219 7.890625-47.929688 30.957031-55.996094 5.085938-1.800781 10.445313-2.71875 15.839844-2.71875 26.507812 0 48 21.492188 48 48zm0 0" fill="#e0bb9d"/><path d="m266.421875 230.078125c9.042969 8.964844 14.117187 21.1875 14.078125 33.921875 0 26.507812-21.492188 48-48 48s-48-21.492188-48-48 21.492188-48 48-48c12.734375-.039062 24.957031 5.035156 33.921875 14.078125zm0 0" fill="#e0bb9d"/><path d="m408.5 224h-40c-13.253906 0-24-10.746094-24-24h16c0 4.417969 3.582031 8 8 8h24c8.835938 0 16 7.164062 16 16zm0 0" fill="#f29a2b"/><path d="m456.5 264c0 26.507812-21.492188 48-48 48s-48-21.492188-48-48 21.492188-48 48-48 48 21.492188 48 48zm0 0" fill="#e0bb9d"/><path d="m131.21875 296.878906 13.28125 20-32.238281 48.242188c.160156.957031.238281 106.878906.238281 106.878906h-112v-112c.027344-8.824219 7.175781-15.972656 16-16h71.441406l40.558594-60.878906v4.878906c.015625 3.164062.960938 6.25 2.71875 8.878906zm0 0" fill="#ee3446"/><path d="m336.5 283.121094 40.558594 60.878906h63.441406c13.253906 0 24 10.746094 24 24v104h-112v-107.199219l-32-47.921875 13.28125-20c1.757812-2.628906 2.703125-5.714844 2.71875-8.878906zm0 0" fill="#03aa6f"/><path d="m320.5 200c8.824219.027344 15.972656 7.175781 16 16v72c-.015625 3.164062-.960938 6.25-2.71875 8.878906l-13.28125 20-32.238281 48.242188c.15625.949218.238281 1.914062.238281 2.878906v104h-112v-107.199219l-32-47.921875-13.28125-20c-1.757812-2.628906-2.703125-5.714844-2.71875-8.878906v-72c.066406-8.808594 7.191406-15.933594 16-16 8.824219.027344 15.972656 7.175781 16 16v67.121094l40.558594 60.878906h62.882812l40.558594-60.878906v-67.121094c.066406-8.808594 7.191406-15.933594 16-16zm0 0" fill="#127bab"/><path d="m104.5 264h-16c-25.421875-.042969-46.398438-19.898438-47.839844-45.28125 5.085938-1.800781 10.445313-2.71875 15.839844-2.71875 26.507812 0 48 21.492188 48 48zm0 0" fill="#7d4739"/><path d="m266.421875 230.078125-1.921875 1.921875c-9.808594 19.601562-29.84375 31.984375-51.761719 32h-28.238281c0-26.507812 21.492188-48 48-48 12.734375-.039062 24.957031 5.035156 33.921875 14.078125zm0 0" fill="#494342"/><path d="m248.5 104h-32c-22.082031-.027344-39.972656-17.917969-40-40v-56c0-4.417969 3.582031-8 8-8h96c4.417969 0 8 3.582031 8 8v56c-.027344 22.082031-17.917969 39.972656-40 40zm0 0" fill="#f29a2b"/><path d="m272.5 176h-80c-4.417969 0-8-3.582031-8-8v-40c0-4.417969 3.582031-8 8-8h80c4.417969 0 8 3.582031 8 8v40c0 4.417969-3.582031 8-8 8zm0 0" fill="#f29a2b"/><g fill="#de722a"><path d="m320.5 96h-16c.019531-15.140625-10.289062-28.34375-24.984375-32l-.953125-.238281c-3.914062-.984375-6.484375-4.730469-5.992188-8.738281.492188-4.007813 3.890626-7.019532 7.929688-7.023438h28c6.628906 0 12-5.371094 12-12s-5.371094-12-12-12h-28v-16h28c15.464844-.035156 28.027344 12.472656 28.0625 27.9375.035156 15.460938-12.46875 28.027344-27.933594 28.0625 7.671875 8.894531 11.882813 20.253906 11.871094 32zm0 0"/><path d="m160.5 96h-16c-.011719-11.746094 4.199219-23.105469 11.871094-32-15.464844-.035156-27.96875-12.601562-27.933594-28.0625.035156-15.464844 12.597656-27.972656 28.0625-27.9375h28v16h-28c-6.628906 0-12 5.371094-12 12s5.371094 12 12 12h28c4.039062.003906 7.4375 3.015625 7.929688 7.023438.492187 4.007812-2.078126 7.753906-5.992188 8.738281l-.960938.238281c-14.691406 3.660156-24.996093 16.859375-24.976562 32zm0 0"/><path d="m168.5 160h128v16h-128zm0 0"/></g></svg>