<?xml version="1.0" encoding="iso-8859-1"?>
<!-- Generator: Adobe Illustrator 19.0.0, SVG Export Plug-In . SVG Version: 6.00 Build 0)  -->
<svg version="1.1" id="Capa_1" xmlns="http://www.w3.org/2000/svg" xmlns:xlink="http://www.w3.org/1999/xlink" x="0px" y="0px"
	 viewBox="0 0 512 512" style="enable-background:new 0 0 512 512;" xml:space="preserve">
<g>
	<path style="fill:#353535;" d="M489.5,191.25c-12.407,0-22.5,10.093-22.5,22.5v130l15-10v-120c0-4.136,3.364-7.5,7.5-7.5
		c4.142,0,7.5-3.358,7.5-7.5S493.642,191.25,489.5,191.25z"/>
	<path style="fill:#353535;" d="M22.5,191.25c-4.142,0-7.5,3.358-7.5,7.5s3.358,7.5,7.5,7.5c4.136,0,7.5,3.364,7.5,7.5v120
		l15,10.012V213.75C45,201.343,34.907,191.25,22.5,191.25z"/>
</g>
<rect x="97.5" y="348.75" style="fill:#B3B3B3;" width="30" height="92"/>
<g>
	<path style="fill:#353535;" d="M45,485.75H30v-30c0-12.407,10.093-22.5,22.5-22.5h154.984v15H52.5c-4.136,0-7.5,3.364-7.5,7.5
		V485.75z"/>
	<rect x="105" y="440.75" style="fill:#353535;" width="15" height="30"/>
	<path style="fill:#353535;" d="M482,485.75h-15v-30c0-4.136-3.364-7.5-7.5-7.5h-75v-15h75c12.407,0,22.5,10.093,22.5,22.5V485.75z"
		/>
</g>
<g>
	<circle style="fill:#4F4F4F;" cx="22.5" cy="485.75" r="22.5"/>
	<circle style="fill:#4F4F4F;" cx="112.5" cy="485.75" r="22.5"/>
	<circle style="fill:#4F4F4F;" cx="489.5" cy="485.75" r="22.5"/>
</g>
<polygon style="fill:#2DADE3;" points="157.5,288.75 97.5,258.75 127.5,348.75 202.484,348.75 202.484,288.75 "/>
<path style="fill:#49C9FF;" d="M67.5,288.75c0,24.853,20.147,45,45,45l15,15v-80L67.5,288.75z"/>
<path style="fill:#4F4F4F;" d="M137.5,168.75h-30l20,120h30v-100C157.5,177.704,148.546,168.75,137.5,168.75z"/>
<path style="fill:#696969;" d="M127.5,188.75c0-11.046-8.954-20-20-20h-20c-11.046,0-20,8.954-20,20v100h60V188.75z"/>
<path style="fill:#4F4F4F;" d="M30,333.75c0,16.5,13.5,30,30,30h142.484v-30H30z"/>
<path style="fill:#FFB4A9;" d="M126.592,78.297L112.5,138.75c24.853,0,45-20.147,45-45L126.592,78.297z"/>
<path style="fill:#FFD9D4;" d="M127.5,93.75c0-5.429-0.321-10.634-0.908-15.453L85.497,57.752C74.57,65.962,67.5,79.03,67.5,93.75
	c0,24.853,20.147,45,45,45C120.784,138.75,127.5,118.603,127.5,93.75z"/>
<path style="fill:#C27749;" d="M112.5,48.75l14.899,39.832c9.413,3.341,19.543,5.168,30.101,5.168
	C157.5,68.897,137.353,48.75,112.5,48.75z"/>
<path style="fill:#E18F4E;" d="M112.5,48.75c-10.132,0-19.481,3.35-27.003,9.002c10.532,14.02,25.066,24.856,41.901,30.831
	C126.544,66.165,120.201,48.75,112.5,48.75z"/>
<circle style="fill:#C27749;" cx="112.5" cy="26.25" r="22.5"/>
<path style="fill:#4F4F4F;" d="M482,333.75c0,16.5-13.5,30-30,30h-90v-30H482z"/>
<path style="fill:#E18F4E;" d="M301,86.25c-4.142,0-7.5,3.358-7.5,7.5v195h15v-195C308.5,89.608,305.142,86.25,301,86.25z"/>
<polygon style="fill:#C27749;" points="422,258.75 422,288.75 367,348.75 392,258.75 "/>
<polygon style="fill:#E18F4E;" points="180,258.75 180,288.75 392,348.75 392,258.75 "/>
<polygon style="fill:#CCCCCC;" points="422,470.75 422,500.75 392,500.75 337,410.75 "/>
<polygon style="fill:#EBEBEB;" points="180,470.75 180,500.75 392,500.75 392,410.75 "/>
<polygon style="fill:#A45E43;" points="422,288.75 422,470.75 392,470.75 367,379.75 392,288.75 "/>
<rect x="180" y="288.75" style="fill:#C27749;" width="212" height="182"/>
<polygon style="fill:#B3B3B3;" points="271,123.75 241,116.25 226,161.25 241,206.25 271,198.75 "/>
<g>
	<polygon style="fill:#CCCCCC;" points="211,108.75 211,213.75 241,206.25 241,116.25 	"/>
	<polygon style="fill:#CCCCCC;" points="331,123.75 361,116.25 376,161.25 361,206.25 331,198.75 	"/>
</g>
<g>
	<polygon style="fill:#B3B3B3;" points="391,108.75 391,213.75 361,206.25 361,116.25 	"/>
	<path style="fill:#B3B3B3;" d="M211,236.25c-4.142,0-7.5-3.358-7.5-7.5v-135c0-4.142,3.358-7.5,7.5-7.5s7.5,3.358,7.5,7.5v135
		C218.5,232.892,215.142,236.25,211,236.25z"/>
</g>
<path style="fill:#999999;" d="M391,236.25c-4.142,0-7.5-3.358-7.5-7.5v-135c0-4.142,3.358-7.5,7.5-7.5s7.5,3.358,7.5,7.5v135
	C398.5,232.892,395.142,236.25,391,236.25z"/>
<g>
</g>
<g>
</g>
<g>
</g>
<g>
</g>
<g>
</g>
<g>
</g>
<g>
</g>
<g>
</g>
<g>
</g>
<g>
</g>
<g>
</g>
<g>
</g>
<g>
</g>
<g>
</g>
<g>
</g>
</svg>
