<?xml version="1.0" encoding="iso-8859-1"?>
<!-- Generator: Adobe Illustrator 19.0.0, SVG Export Plug-In . SVG Version: 6.00 Build 0)  -->
<svg version="1.1" id="Layer_1" xmlns="http://www.w3.org/2000/svg" xmlns:xlink="http://www.w3.org/1999/xlink" x="0px" y="0px"
	 viewBox="0 0 496 496" style="enable-background:new 0 0 496 496;" xml:space="preserve">
<path style="fill:#EFE7E4;" d="M488,160c0-17.672-14.328-32-32-32H40c-17.672,0-32,14.328-32,32v232h480V160z"/>
<path style="fill:#D8D1D0;" d="M488,392V160c0-17.672-14.328-32-32-32v264H488z"/>
<path style="fill:#A8A8A8;" d="M40,440h416c17.672,0,32-14.328,32-32v-16H8v16C8,425.672,22.328,440,40,440z"/>
<path style="fill:#9B9B9B;" d="M488,408v-16h-32v48C473.672,440,488,425.672,488,408z"/>
<path style="fill:#684621;" d="M456,448H40c-22.056,0-40-17.944-40-40V160c0-22.056,17.944-40,40-40h416c22.056,0,40,17.944,40,40
	v248C496,430.056,478.056,448,456,448z M40,136c-13.232,0-24,10.768-24,24v248c0,13.232,10.768,24,24,24h416
	c13.232,0,24-10.768,24-24V160c0-13.232-10.768-24-24-24H40z"/>
<rect x="144" y="440" style="fill:#A8A8A8;" width="208" height="48"/>
<rect x="320" y="440" style="fill:#9B9B9B;" width="32" height="48"/>
<g>
	<path style="fill:#684621;" d="M360,496H136v-64h224V496z M152,480h192v-32H152V480z"/>
	<rect x="104" y="480" style="fill:#684621;" width="288" height="16"/>
	<rect x="8" y="384" style="fill:#684621;" width="480" height="16"/>
</g>
<rect x="208" y="64" style="fill:#EFE7E4;" width="80" height="80"/>
<rect x="256" y="64" style="fill:#D8D1D0;" width="32" height="80"/>
<path style="fill:#684621;" d="M296,152h-96V56h96V152z M216,136h64V72h-64V136z"/>
<circle style="fill:#66ADDD;" cx="248" cy="64" r="56"/>
<path style="fill:#5B9DC1;" d="M248,8c-5.56,0-10.928,0.84-16,2.352c23.128,6.888,40,28.28,40,53.648
	c0,25.36-16.872,46.76-40,53.648c5.072,1.512,10.44,2.352,16,2.352c30.928,0,56-25.072,56-56S278.928,8,248,8z"/>
<circle style="fill:#A8A8A8;" cx="248" cy="64" r="24"/>
<g>
	<path style="fill:#684621;" d="M248,96c-17.648,0-32-14.352-32-32s14.352-32,32-32s32,14.352,32,32S265.648,96,248,96z M248,48
		c-8.824,0-16,7.176-16,16s7.176,16,16,16s16-7.176,16-16S256.824,48,248,48z"/>
	<path style="fill:#684621;" d="M248,128c-35.288,0-64-28.712-64-64s28.712-64,64-64s64,28.712,64,64S283.288,128,248,128z M248,16
		c-26.472,0-48,21.528-48,48s21.528,48,48,48s48-21.528,48-48S274.472,16,248,16z"/>
</g>
<circle style="fill:#F7CAB2;" cx="248" cy="240" r="64"/>
<path style="fill:#D8B09E;" d="M248,176c-4.104,0-8.112,0.424-12,1.16c29.608,5.624,52,31.6,52,62.84s-22.392,57.216-52,62.84
	c3.888,0.736,7.896,1.16,12,1.16c35.344,0,64-28.656,64-64S283.344,176,248,176z"/>
<path style="fill:#A8A8A8;" d="M248,176c-32.632,0-59.504,24.44-63.448,56h54.176c6.04,0,11.952-1.792,16.984-5.144L272,216
	l9.536,14.304c4.04,6.056,10.84,9.696,18.12,9.696H312C312,204.656,283.344,176,248,176z"/>
<path style="fill:#9B9B9B;" d="M248,176c-4.136,0-8.176,0.4-12.088,1.152c28.472,5.368,50.216,29.568,51.904,59.176
	c3.496,2.288,7.544,3.68,11.84,3.68H312C312,204.656,283.344,176,248,176z"/>
<path style="fill:#684621;" d="M248,312c-39.704,0-72-32.304-72-72s32.296-72,72-72s72,32.304,72,72S287.704,312,248,312z M248,184
	c-30.872,0-56,25.12-56,56s25.128,56,56,56s56-25.12,56-56S278.872,184,248,184z"/>
<path style="fill:#FFCB57;" d="M304,320H192c-26.512,0-48,21.488-48,48v24h208v-24C352,341.488,330.512,320,304,320z"/>
<path style="fill:#F2BE55;" d="M312,320.72V392h40v-24C352,344.224,334.696,324.536,312,320.72z"/>
<g>
	<path style="fill:#684621;" d="M360,400H136v-32c0-30.88,25.128-56,56-56h112c30.872,0,56,25.12,56,56V400z M152,384h192v-16
		c0-22.056-17.944-40-40-40H192c-22.056,0-40,17.944-40,40V384z"/>
	<path style="fill:#684621;" d="M312,248h-12.344c-9.984,0-19.24-4.96-24.784-13.264l-5.096-7.648l-9.632,6.424
		c-6.36,4.248-13.768,6.488-21.408,6.488H184v-16h54.736c4.48,0,8.816-1.312,12.536-3.8l22.944-15.296l13.968,20.96
		c2.568,3.84,6.856,6.136,11.472,6.136H312V248z"/>
	<rect x="304" y="352" style="fill:#684621;" width="16" height="40"/>
	<rect x="176" y="352" style="fill:#684621;" width="16" height="40"/>
</g>
<rect x="40" y="176" style="fill:#FFCB57;" width="128" height="96"/>
<rect x="128" y="176" style="fill:#F2BE55;" width="40" height="96"/>
<g>
	<path style="fill:#684621;" d="M176,280H32V168h144V280z M48,264h112v-80H48V264z"/>
	<rect x="64" y="200" style="fill:#684621;" width="80" height="16"/>
	<rect x="64" y="232" style="fill:#684621;" width="80" height="16"/>
</g>
<rect x="328" y="224" style="fill:#66ADDD;" width="128" height="96"/>
<rect x="416" y="224" style="fill:#5B9DC1;" width="40" height="96"/>
<g>
	<path style="fill:#684621;" d="M464,328H320V216h144V328z M336,312h112v-80H336V312z"/>
	<rect x="352" y="248" style="fill:#684621;" width="80" height="16"/>
	<rect x="416" y="280" style="fill:#684621;" width="16" height="16"/>
	<rect x="352" y="280" style="fill:#684621;" width="48" height="16"/>
</g>
<g>
	<rect x="88" y="400" style="fill:#EFE7E4;" width="16" height="16"/>
	<rect x="120" y="400" style="fill:#EFE7E4;" width="96" height="16"/>
</g>
<g>
</g>
<g>
</g>
<g>
</g>
<g>
</g>
<g>
</g>
<g>
</g>
<g>
</g>
<g>
</g>
<g>
</g>
<g>
</g>
<g>
</g>
<g>
</g>
<g>
</g>
<g>
</g>
<g>
</g>
</svg>
