<svg height="464pt" viewBox="-8 0 464 464" width="464pt" xmlns="http://www.w3.org/2000/svg"><path d="m439.152344 369.6875c-1.355469 2.707031-4.125 4.414062-7.152344 4.414062s-5.796875-1.707031-7.152344-4.414062c-5.816406-11.632812-8.847656-24.457031-8.847656-37.464844v-268.222656c0-8.835938 7.164062-16 16-16s16 7.164062 16 16v268.222656c0 13.007813-3.03125 25.832032-8.847656 37.464844zm0 0" fill="#ebebeb"/><path d="m424 50.214844c-4.933594 2.839844-7.984375 8.09375-8 13.785156v268.222656c.03125 12.277344 2.761719 24.394532 8 35.496094zm0 0" fill="#dededc"/><path d="m32 0h288c17.671875 0 32 14.328125 32 32v400c0 17.671875-14.328125 32-32 32h-288c-17.671875 0-32-14.328125-32-32v-400c0-17.671875 14.328125-32 32-32zm0 0" fill="#ebebeb"/><path d="m32 0h280c17.671875 0 32 14.328125 32 32v400c0 17.671875-14.328125 32-32 32h-280c-17.671875 0-32-14.328125-32-32v-400c0-17.671875 14.328125-32 32-32zm0 0" fill="#f0f0f0"/><path d="m40 32h272c4.417969 0 8 3.582031 8 8v368c0 4.417969-3.582031 8-8 8h-272c-4.417969 0-8-3.582031-8-8v-368c0-4.417969 3.582031-8 8-8zm0 0" fill="#34b2a6"/><path d="m184 448h-16c-4.417969 0-8-3.582031-8-8s3.582031-8 8-8h16c4.417969 0 8 3.582031 8 8s-3.582031 8-8 8zm0 0" fill="#b9b9b9"/><path d="m416 120h32v32h-32zm0 0" fill="#cdcdcd"/><path d="m416 120h8v32h-8zm0 0" fill="#b9b9b9"/><path d="m376 224h16v16h-16zm0 0" fill="#c0f5f9"/><path d="m80 64h32c4.417969 0 8 3.582031 8 8v32c0 4.417969-3.582031 8-8 8h-32c-4.417969 0-8-3.582031-8-8v-32c0-4.417969 3.582031-8 8-8zm0 0" fill="#ebebeb"/><path d="m160 64h32c4.417969 0 8 3.582031 8 8v32c0 4.417969-3.582031 8-8 8h-32c-4.417969 0-8-3.582031-8-8v-32c0-4.417969 3.582031-8 8-8zm0 0" fill="#38c1b4"/><path d="m240 64h32c4.417969 0 8 3.582031 8 8v32c0 4.417969-3.582031 8-8 8h-32c-4.417969 0-8-3.582031-8-8v-32c0-4.417969 3.582031-8 8-8zm0 0" fill="#428dc5"/><path d="m80 152h32c4.417969 0 8 3.582031 8 8v32c0 4.417969-3.582031 8-8 8h-32c-4.417969 0-8-3.582031-8-8v-32c0-4.417969 3.582031-8 8-8zm0 0" fill="#f7ba61"/><path d="m160 152h32c4.417969 0 8 3.582031 8 8v32c0 4.417969-3.582031 8-8 8h-32c-4.417969 0-8-3.582031-8-8v-32c0-4.417969 3.582031-8 8-8zm0 0" fill="#b9b9b9"/><path d="m240 152h32c4.417969 0 8 3.582031 8 8v32c0 4.417969-3.582031 8-8 8h-32c-4.417969 0-8-3.582031-8-8v-32c0-4.417969 3.582031-8 8-8zm0 0" fill="#38c1b4"/><path d="m80 240h32c4.417969 0 8 3.582031 8 8v32c0 4.417969-3.582031 8-8 8h-32c-4.417969 0-8-3.582031-8-8v-32c0-4.417969 3.582031-8 8-8zm0 0" fill="#ebebeb"/><path d="m160 240h32c4.417969 0 8 3.582031 8 8v32c0 4.417969-3.582031 8-8 8h-32c-4.417969 0-8-3.582031-8-8v-32c0-4.417969 3.582031-8 8-8zm0 0" fill="#38c1b4"/><path d="m240 240h32c4.417969 0 8 3.582031 8 8v32c0 4.417969-3.582031 8-8 8h-32c-4.417969 0-8-3.582031-8-8v-32c0-4.417969 3.582031-8 8-8zm0 0" fill="#fbb540"/><path d="m168 312h16v16h-16zm0 0" fill="#2c998f"/><path d="m136 312h16v16h-16zm0 0" fill="#30a69b"/><path d="m200 312h16v16h-16zm0 0" fill="#298d84"/><path d="m160 352h32v32h-32zm0 0" fill="#428dc5"/><path d="m96 352h32v32h-32zm0 0" fill="#ebebeb"/><path d="m224 352h32v32h-32zm0 0" fill="#38c1b4"/></svg>