<svg enable-background="new 0 0 256 256" height="512" viewBox="0 0 256 256" width="512" xmlns="http://www.w3.org/2000/svg"><g fill="#45bdf0"><circle cx="188.363" cy="71.5" r="7"/><path d="m189.592 64.615c2.879.511 5.146 2.777 5.657 5.657l4.531-4.531c8.063 5.418 19.115 4.573 26.237-2.549 8.09-8.09 8.09-21.255 0-29.345s-21.255-8.09-29.345 0c-7.122 7.122-7.967 18.174-2.549 26.237zm12.736-25.112c4.971-4.971 13.06-4.971 18.031 0s4.971 13.06 0 18.031-13.06 4.971-18.031 0c-4.971-4.97-4.971-13.059 0-18.031z"/><path d="m199.779 77.26-4.531-4.531c-.511 2.879-2.777 5.146-5.657 5.657l4.531 4.531c-5.418 8.063-4.573 19.115 2.549 26.237 8.09 8.09 21.255 8.09 29.345 0s8.09-21.255 0-29.345c-7.122-7.123-18.173-7.968-26.237-2.549zm20.581 26.237c-4.971 4.971-13.06 4.971-18.031 0s-4.971-13.06 0-18.031 13.06-4.971 18.031 0 4.971 13.059 0 18.031z"/><path d="m176.652 83.156c1.417.355 2.492 1.436 2.935 2.776l7.547-7.547c-2.879-.511-5.146-2.777-5.657-5.657l-8.628 8.628c1.122.825 2.404 1.45 3.803 1.8z"/><path d="m181.477 70.271c.511-2.879 2.777-5.146 5.657-5.657l-30.768-30.768c-1.562-1.562-4.095-1.562-5.657 0s-1.562 4.095 0 5.657z"/></g><path d="m176.652 83.156c-4.808-1.205-8.289-5.564-8.289-10.656 0-4.12 2.281-7.763 5.703-9.641l-23.356-23.356c-1.562-1.562-1.562-4.095 0-5.657s4.095-1.562 5.657 0l23.443 23.444v-50.482c0-2.379-1.928-4.307-4.307-4.307h-147.28c-2.379 0-4.307 1.928-4.307 4.307v50.888c0 1.936 1.28 3.677 3.158 4.148 4.808 1.205 8.289 5.564 8.289 10.656 0 5.088-3.477 9.451-8.29 10.657-1.877.47-3.157 2.212-3.157 4.148v161.887c0 2.379 1.928 4.307 4.307 4.307h147.279c2.379 0 4.307-1.928 4.307-4.307v-161.888c.001-1.935-1.279-3.677-3.157-4.148z" fill="#fc3850"/><path d="m175.503 2.5h-147.28c-2.379 0-4.307 1.928-4.307 4.307v50.888c0 1.936 1.28 3.677 3.158 4.148 4.328 1.085 7.571 4.727 8.178 9.156h133.215c.478-3.491 2.599-6.494 5.599-8.141l-23.356-23.355c-1.562-1.562-1.562-4.095 0-5.657s4.095-1.562 5.657 0l23.443 23.444v-50.482c0-2.379-1.929-4.308-4.307-4.308z" fill="#f9677f"/><path d="m106.367 208.413h-10.009c-.708 0-1.281.574-1.281 1.281v21.18c0 .708.574 1.281 1.281 1.281h10.009c.708 0 1.281-.574 1.281-1.281v-21.18c.001-.707-.573-1.281-1.281-1.281z" fill="#edf4fc"/><path d="m134.078 208.413h-5.001c-.708 0-1.281.574-1.281 1.281v21.18c0 .708.574 1.281 1.281 1.281h5.001c.708 0 1.281-.574 1.281-1.281v-21.18c0-.707-.574-1.281-1.281-1.281z" fill="#edf4fc"/><path d="m85.078 208.413h-5.001c-.708 0-1.281.574-1.281 1.281v21.18c0 .708.574 1.281 1.281 1.281h5.001c.708 0 1.281-.574 1.281-1.281v-21.18c0-.707-.574-1.281-1.281-1.281z" fill="#edf4fc"/><path d="m139.497 149.436c0-.001 0-.001 0 0-3.728-3.681-8.56-5.546-14.361-5.546-11.243 0-20.109 7.593-20.109 20.231 0 12.583 8.973 20.351 20.109 20.351 5.809 0 10.645-1.89 14.372-5.617s5.618-8.685 5.618-14.734c0-6.056-1.893-10.996-5.629-14.685zm-14.361 23.04c-2.254 0-3.994-.716-5.318-2.188-1.395-1.548-2.072-3.565-2.072-6.167 0-4.815 2.595-8.355 7.391-8.355 4.692 0 7.271 3.62 7.271 8.355-.002 4.79-2.622 8.355-7.272 8.355z" fill="#facb35"/><path d="m130.715 98.23h-7.855c-.896 0-1.723.479-2.169 1.256l-48.85 85.156c-.951 1.661.244 3.744 2.169 3.744h7.855c.896 0 1.723-.479 2.169-1.256l48.85-85.156c.951-1.66-.244-3.744-2.169-3.744z" fill="#facb35"/><path d="m93.119 137.191c3.782-3.688 5.7-8.633 5.7-14.696 0-6.061-1.938-11.025-5.759-14.755-3.806-3.713-8.634-5.595-14.351-5.595-11.37 0-20.11 7.827-20.11 20.351 0 12.652 8.876 20.231 20.11 20.231 5.798 0 10.646-1.863 14.41-5.536zm-14.53-23.051c4.791 0 7.512 3.524 7.512 8.355 0 4.837-2.724 8.356-7.512 8.356-2.173 0-3.873-.715-5.197-2.188 0 0 0-.001-.001-.001-1.394-1.548-2.071-3.565-2.071-6.167 0-4.765 2.602-8.355 7.269-8.355z" fill="#facb35"/><path d="m125.136 186.971c-13.101 0-22.609-9.61-22.609-22.851 0-13.384 9.297-22.731 22.609-22.731 6.483 0 11.906 2.108 16.118 6.267 4.229 4.176 6.372 9.715 6.372 16.463 0 6.736-2.137 12.288-6.351 16.501-4.213 4.215-9.643 6.351-16.139 6.351zm0-40.582c-10.532 0-17.609 7.125-17.609 17.731 0 10.51 7.241 17.851 17.609 17.851 5.122 0 9.363-1.644 12.604-4.885 3.242-3.242 4.886-7.604 4.886-12.966s-1.644-9.704-4.886-12.906c-3.242-3.201-7.483-4.825-12.604-4.825zm0 28.587c-2.962 0-5.377-1.015-7.177-3.016-1.801-2-2.714-4.637-2.714-7.839 0-6.493 3.975-10.855 9.891-10.855 5.844 0 9.771 4.362 9.771 10.855s-3.928 10.855-9.771 10.855zm0-16.711c-4.414 0-4.891 4.095-4.891 5.855 0 1.983.454 3.411 1.43 4.494.848.942 1.914 1.361 3.461 1.361 4.427 0 4.771-4.482 4.771-5.855s-.345-5.855-4.771-5.855z"/><path d="m81.865 190.886h-7.855c-1.803 0-3.419-.932-4.323-2.492-.906-1.562-.911-3.43-.015-4.995l48.85-85.157c.891-1.55 2.553-2.512 4.338-2.512h7.855c1.803 0 3.419.932 4.323 2.492.906 1.562.911 3.43.015 4.995l-48.85 85.157c-.891 1.55-2.553 2.512-4.338 2.512zm40.994-90.156-48.85 85.156h7.855l48.85-85.156z"/><path d="m78.71 145.227c-13.312 0-22.61-9.347-22.61-22.731 0-13.455 9.298-22.851 22.61-22.851 6.392 0 11.808 2.122 16.097 6.306 4.321 4.22 6.513 9.786 6.513 16.545 0 6.762-2.172 12.309-6.455 16.486h.001c-4.249 4.143-9.684 6.245-16.156 6.245zm0-40.582c-10.533 0-17.61 7.174-17.61 17.851 0 10.605 7.077 17.731 17.61 17.731 5.121 0 9.382-1.623 12.663-4.825h.001c3.281-3.2 4.945-7.542 4.945-12.906 0-5.362-1.684-9.724-5.005-12.966-3.322-3.242-7.562-4.885-12.604-4.885zm-.121 28.707c-2.882 0-5.256-1.015-7.056-3.016-1.801-2-2.714-4.638-2.714-7.84 0-6.493 3.926-10.855 9.77-10.855 5.988 0 10.012 4.362 10.012 10.855s-4.024 10.856-10.012 10.856zm0-16.712c-4.426 0-4.77 4.482-4.77 5.855 0 1.983.454 3.412 1.43 4.495.847.942 1.877 1.361 3.34 1.361 4.523 0 5.012-4.095 5.012-5.856s-.489-5.855-5.012-5.855z"/><path d="m57.363 234.655c-1.381 0-2.5-1.119-2.5-2.5v-23.742c0-1.381 1.119-2.5 2.5-2.5s2.5 1.119 2.5 2.5v23.742c0 1.381-1.119 2.5-2.5 2.5z"/><path d="m67.935 234.655c-1.381 0-2.5-1.119-2.5-2.5v-23.742c0-1.381 1.119-2.5 2.5-2.5s2.5 1.119 2.5 2.5v23.742c0 1.381-1.12 2.5-2.5 2.5z"/><path d="m145.935 234.655c-1.381 0-2.5-1.119-2.5-2.5v-23.742c0-1.381 1.119-2.5 2.5-2.5s2.5 1.119 2.5 2.5v23.742c0 1.381-1.12 2.5-2.5 2.5z"/><path d="m118.22 234.655c-1.381 0-2.5-1.119-2.5-2.5v-23.742c0-1.381 1.119-2.5 2.5-2.5s2.5 1.119 2.5 2.5v23.742c0 1.381-1.119 2.5-2.5 2.5z"/><path d="m106.367 234.655h-10.009c-2.085 0-3.781-1.696-3.781-3.781v-21.18c0-2.085 1.696-3.781 3.781-3.781h10.009c2.085 0 3.781 1.696 3.781 3.781v21.18c0 2.085-1.696 3.781-3.781 3.781zm-8.79-5h7.571v-18.742h-7.571zm8.79-18.742h.01z"/><path d="m134.078 234.655h-5.001c-2.085 0-3.781-1.696-3.781-3.781v-21.18c0-2.085 1.696-3.781 3.781-3.781h5.001c2.084 0 3.78 1.696 3.78 3.781v21.18c0 2.085-1.696 3.781-3.78 3.781zm-3.782-5h2.562v-18.742h-2.562zm3.782-18.742h.01z"/><path d="m85.078 234.655h-5.001c-2.085 0-3.781-1.696-3.781-3.781v-21.18c0-2.085 1.696-3.781 3.781-3.781h5.001c2.084 0 3.78 1.696 3.78 3.781v21.18c0 2.085-1.696 3.781-3.78 3.781zm-3.782-5h2.562v-18.742h-2.562zm3.782-18.742h.01z"/><path d="m49.891 74h-4.266c-1.381 0-2.5-1.119-2.5-2.5s1.119-2.5 2.5-2.5h4.266c1.381 0 2.5 1.119 2.5 2.5s-1.12 2.5-2.5 2.5z"/><path d="m65.252 74h-4.266c-1.381 0-2.5-1.119-2.5-2.5s1.119-2.5 2.5-2.5h4.266c1.381 0 2.5 1.119 2.5 2.5s-1.119 2.5-2.5 2.5z"/><path d="m80.613 74h-4.266c-1.381 0-2.5-1.119-2.5-2.5s1.119-2.5 2.5-2.5h4.266c1.381 0 2.5 1.119 2.5 2.5s-1.119 2.5-2.5 2.5z"/><path d="m95.975 74h-4.266c-1.381 0-2.5-1.119-2.5-2.5s1.119-2.5 2.5-2.5h4.266c1.381 0 2.5 1.119 2.5 2.5s-1.12 2.5-2.5 2.5z"/><path d="m111.336 74h-4.266c-1.381 0-2.5-1.119-2.5-2.5s1.119-2.5 2.5-2.5h4.266c1.381 0 2.5 1.119 2.5 2.5s-1.119 2.5-2.5 2.5z"/><path d="m126.696 74h-4.266c-1.381 0-2.5-1.119-2.5-2.5s1.119-2.5 2.5-2.5h4.266c1.381 0 2.5 1.119 2.5 2.5s-1.119 2.5-2.5 2.5z"/><path d="m142.058 74h-4.266c-1.381 0-2.5-1.119-2.5-2.5s1.119-2.5 2.5-2.5h4.266c1.381 0 2.5 1.119 2.5 2.5s-1.12 2.5-2.5 2.5z"/><path d="m157.419 74h-4.266c-1.381 0-2.5-1.119-2.5-2.5s1.119-2.5 2.5-2.5h4.266c1.381 0 2.5 1.119 2.5 2.5s-1.119 2.5-2.5 2.5z"/><path d="m188.363 81c-5.238 0-9.5-4.262-9.5-9.5s4.262-9.5 9.5-9.5 9.5 4.262 9.5 9.5-4.261 9.5-9.5 9.5zm0-14c-2.481 0-4.5 2.019-4.5 4.5s2.019 4.5 4.5 4.5 4.5-2.019 4.5-4.5-2.018-4.5-4.5-4.5z"/><path d="m195.248 72.771c-.251 0-.504-.038-.751-.115-.889-.28-1.548-1.031-1.711-1.948-.327-1.845-1.786-3.305-3.632-3.632-.917-.163-1.668-.822-1.947-1.711s-.042-1.859.617-2.518l3.143-3.143c-4.924-8.965-3.406-20.283 3.938-27.625 4.385-4.385 10.223-6.8 16.439-6.8s12.056 2.415 16.44 6.8c9.064 9.065 9.064 23.815 0 32.88-7.345 7.343-18.662 8.858-27.625 3.937l-3.144 3.143c-.475.476-1.114.732-1.767.732zm4.532-9.531c.482 0 .969.14 1.394.425 7.218 4.851 16.925 3.909 23.075-2.242 7.115-7.115 7.115-18.693 0-25.809-3.441-3.44-8.024-5.335-12.905-5.335s-9.464 1.895-12.904 5.335c-6.151 6.15-7.094 15.854-2.242 23.075.666.992.538 2.317-.308 3.162l-1.961 1.962c.813.591 1.53 1.308 2.121 2.122l1.962-1.962c.483-.484 1.123-.733 1.768-.733zm11.564.523c-4.077 0-7.906-1.584-10.783-4.46-5.945-5.946-5.945-15.621 0-21.567 2.877-2.876 6.706-4.46 10.783-4.46 4.078 0 7.907 1.584 10.783 4.461 2.877 2.876 4.461 6.706 4.461 10.783s-1.584 7.907-4.461 10.784c-2.876 2.875-6.705 4.459-10.783 4.459zm-7.248-22.492c-3.996 3.997-3.996 10.5 0 14.496 1.933 1.932 4.507 2.996 7.248 2.996 2.742 0 5.315-1.064 7.248-2.996s2.996-4.506 2.996-7.248-1.063-5.316-2.996-7.248c-1.933-1.933-4.506-2.997-7.248-2.997-2.741.001-5.316 1.065-7.248 2.997z"/><path d="m211.344 117.721c-6.217 0-12.055-2.415-16.439-6.8-7.343-7.342-8.86-18.66-3.938-27.625l-3.143-3.143c-.659-.659-.896-1.629-.617-2.518s1.03-1.548 1.947-1.711c1.846-.328 3.305-1.788 3.632-3.632.163-.917.822-1.668 1.711-1.948.891-.28 1.861-.042 2.519.617l3.144 3.143c8.965-4.923 20.282-3.406 27.625 3.937 9.064 9.065 9.064 23.815 0 32.88-4.386 4.385-10.224 6.8-16.441 6.8zm-17.415-38.534 1.961 1.962c.846.845.974 2.17.308 3.162-4.852 7.221-3.908 16.925 2.242 23.075 3.44 3.441 8.023 5.336 12.904 5.336s9.464-1.895 12.905-5.335c7.115-7.116 7.115-18.694 0-25.81-6.15-6.15-15.855-7.094-23.075-2.241-.994.667-2.316.537-3.162-.308l-1.962-1.962c-.591.813-1.308 1.53-2.121 2.121zm17.415 30.538c-4.077 0-7.906-1.584-10.783-4.46-5.945-5.946-5.945-15.621 0-21.567 2.877-2.876 6.706-4.461 10.783-4.461 4.078 0 7.907 1.584 10.783 4.461 2.877 2.876 4.461 6.706 4.461 10.783s-1.584 7.907-4.461 10.784c-2.876 2.876-6.705 4.46-10.783 4.46zm0-25.488c-2.741 0-5.315 1.064-7.248 2.997-3.996 3.996-3.996 10.499 0 14.496 1.933 1.932 4.507 2.996 7.248 2.996 2.742 0 5.315-1.064 7.248-2.996 1.933-1.932 2.996-4.506 2.996-7.248s-1.063-5.316-2.996-7.248c-1.933-1.933-4.506-2.997-7.248-2.997z"/><path d="m179.587 88.433c-.192 0-.387-.022-.578-.068-.844-.201-1.524-.825-1.796-1.648-.189-.575-.627-.999-1.169-1.135-1.681-.421-3.253-1.165-4.676-2.21-.587-.432-.956-1.099-1.012-1.825-.055-.727.21-1.441.726-1.957l8.628-8.628c.659-.659 1.631-.896 2.519-.617.889.28 1.548 1.031 1.711 1.948.327 1.845 1.786 3.305 3.631 3.632.918.163 1.668.822 1.948 1.711.279.889.042 1.859-.617 2.518l-7.547 7.547c-.475.474-1.113.732-1.768.732zm-2.525-7.754c.065.018.131.036.197.052h.001c.988.248 1.885.714 2.641 1.351l2.896-2.896c-.813-.591-1.53-1.308-2.121-2.121z"/><path d="m181.478 72.771c-.653 0-1.292-.256-1.768-.732l-30.768-30.768c-1.228-1.227-1.904-2.859-1.904-4.596s.677-3.369 1.904-4.597c1.227-1.227 2.859-1.903 4.596-1.903s3.369.676 4.596 1.904l30.768 30.768c.659.659.896 1.629.617 2.518s-1.03 1.548-1.947 1.711c-1.846.328-3.305 1.788-3.632 3.632-.163.917-.822 1.668-1.711 1.948-.248.078-.5.115-.751.115zm-27.94-37.596c-.4 0-.777.156-1.061.439-.283.284-.439.66-.439 1.061 0 .4.156.777.439 1.06l28.198 28.199c.591-.814 1.308-1.531 2.121-2.122l-28.198-28.199c-.283-.282-.66-.438-1.06-.438z"/><path d="m175.503 256h-147.279c-3.754 0-6.808-3.054-6.808-6.807v-161.888c0-3.125 2.076-5.828 5.05-6.573 3.767-.943 6.397-4.329 6.397-8.232 0-3.902-2.631-7.287-6.396-8.231-2.974-.745-5.051-3.448-5.051-6.573v-50.888c0-3.754 3.054-6.808 6.808-6.808h147.279c3.753 0 6.807 3.054 6.807 6.807v50.483c0 1.011-.609 1.923-1.543 2.31-.936.389-2.01.172-2.725-.542l-23.443-23.443c-.566-.566-1.555-.566-2.121 0-.283.284-.439.66-.439 1.061s.156.777.439 1.061l23.355 23.356c.557.556.818 1.342.707 2.121-.11.779-.582 1.46-1.271 1.839-2.718 1.491-4.405 4.345-4.405 7.449 0 3.902 2.631 7.287 6.396 8.231h.001c2.973.746 5.049 3.448 5.049 6.573v161.888c0 3.752-3.054 6.806-6.807 6.806zm-147.279-251c-.997 0-1.808.811-1.808 1.807v50.888c0 .814.532 1.539 1.266 1.723 5.995 1.502 10.182 6.882 10.182 13.081 0 6.201-4.188 11.581-10.183 13.083-.732.183-1.265.908-1.265 1.722v161.888c0 .997.811 1.807 1.808 1.807h147.279c.996 0 1.807-.811 1.807-1.807v-161.887c0-.814-.532-1.54-1.265-1.724-5.995-1.502-10.182-6.881-10.182-13.081 0-3.829 1.618-7.419 4.365-9.942l-21.286-21.287c-1.228-1.227-1.904-2.859-1.904-4.596 0-1.736.677-3.369 1.904-4.596s2.859-1.903 4.596-1.903 3.369.676 4.596 1.904l19.176 19.175v-44.447c0-.997-.811-1.807-1.807-1.807h-147.279z"/></svg>