<?xml version="1.0" encoding="iso-8859-1"?>
<!-- Generator: Adobe Illustrator 19.0.0, SVG Export Plug-In . SVG Version: 6.00 Build 0)  -->
<svg version="1.1" id="Layer_1" xmlns="http://www.w3.org/2000/svg" xmlns:xlink="http://www.w3.org/1999/xlink" x="0px" y="0px"
	 viewBox="0 0 512 512" style="enable-background:new 0 0 512 512;" xml:space="preserve">
<path style="fill:#687492;" d="M256,436.966c-5.297,0-8.828-3.531-8.828-8.828v-35.31c0-5.297,3.531-8.828,8.828-8.828
	c5.297,0,8.828,3.531,8.828,8.828v35.31C264.828,433.434,261.297,436.966,256,436.966z"/>
<polygon style="fill:#ECF0F1;" points="17.655,392.828 494.345,392.828 494.345,75.034 17.655,75.034 "/>
<g>
	<path style="fill:#8697CB;" d="M123.586,119.172H52.966c-5.297,0-8.828-3.531-8.828-8.828s3.531-8.828,8.828-8.828h70.621
		c5.297,0,8.828,3.531,8.828,8.828S128.883,119.172,123.586,119.172z"/>
	<path style="fill:#8697CB;" d="M97.103,154.483H52.966c-5.297,0-8.828-3.531-8.828-8.828s3.531-8.828,8.828-8.828h44.138
		c5.297,0,8.828,3.531,8.828,8.828S102.4,154.483,97.103,154.483z"/>
</g>
<polygon style="fill:#F29C1F;" points="273.655,110.345 335.448,145.655 335.448,216.276 273.655,251.586 211.862,216.276 
	211.862,145.655 "/>
<path style="fill:#CC801B;" d="M247.172,207.448c-5.297,0-8.828-3.531-8.828-8.828v-32.662c0-3.531,1.766-7.062,5.297-7.945
	l26.483-11.476c4.414-1.766,9.71,0,11.476,4.414c1.766,4.414,0,9.71-4.414,11.476L256,172.138v26.483
	C256,203.917,252.469,207.448,247.172,207.448z"/>
<polygon style="fill:#3B97D3;" points="211.862,216.276 273.655,251.586 273.655,322.207 211.862,357.517 150.069,322.207 
	150.069,251.586 "/>
<path style="fill:#2D769E;" d="M185.379,313.379c-5.297,0-8.828-3.531-8.828-8.828V271.89c0-3.531,1.766-7.062,5.297-7.945
	l26.483-11.476c4.414-1.766,9.71,0,11.476,4.414c1.766,4.414,0,9.71-4.414,11.476l-21.186,9.71v26.483
	C194.207,309.848,190.676,313.379,185.379,313.379z"/>
<polygon style="fill:#71C285;" points="335.448,216.276 397.241,251.586 397.241,322.207 335.448,357.517 273.655,322.207 
	273.655,251.586 "/>
<path style="fill:#599967;" d="M308.966,313.379c-5.297,0-8.828-3.531-8.828-8.828V271.89c0-3.531,1.766-7.062,5.297-7.945
	l26.483-11.476c4.414-1.766,9.71,0,11.476,4.414c1.766,4.414,0,9.71-4.414,11.476l-21.186,9.71v26.483
	C317.793,309.848,314.262,313.379,308.966,313.379z"/>
<path style="fill:#677492;" d="M256,489.931c-19.421,0-35.31-15.89-35.31-35.31c0-19.421,15.89-35.31,35.31-35.31
	s35.31,15.89,35.31,35.31C291.31,474.041,275.421,489.931,256,489.931z M256,436.966c-9.71,0-17.655,7.945-17.655,17.655
	s7.945,17.655,17.655,17.655c9.71,0,17.655-7.945,17.655-17.655S265.71,436.966,256,436.966z"/>
<path style="fill:#687492;" d="M494.345,75.034H17.655C7.945,75.034,0,67.09,0,57.379V39.724c0-9.71,7.945-17.655,17.655-17.655
	h476.69c9.71,0,17.655,7.945,17.655,17.655v17.655C512,67.09,504.055,75.034,494.345,75.034"/>
<g>
</g>
<g>
</g>
<g>
</g>
<g>
</g>
<g>
</g>
<g>
</g>
<g>
</g>
<g>
</g>
<g>
</g>
<g>
</g>
<g>
</g>
<g>
</g>
<g>
</g>
<g>
</g>
<g>
</g>
</svg>
