<svg height="512pt" viewBox="0 0 512 512" width="512pt" xmlns="http://www.w3.org/2000/svg"><path d="m230 301.683594h-171.441406c-32.339844 0-58.558594-26.214844-58.558594-58.558594v-155.675781c0-32.339844 26.21875-58.558594 58.558594-58.558594h171.441406c32.34375 0 58.558594 26.214844 58.558594 58.558594v155.675781c0 32.34375-26.214844 58.558594-58.558594 58.558594zm0 0" fill="#f1f0f7"/><path d="m80.242188 28.890625h-21.683594c-32.339844 0-58.558594 26.21875-58.558594 58.558594v155.675781c0 32.34375 26.21875 58.558594 58.558594 58.558594h59.539062c-45.628906-58.871094-43.992187-213.941406-37.855468-272.792969zm0 0" fill="#deddf5"/><path d="m288.558594 105.457031h-288.558594v-18.007812c0-32.339844 26.21875-58.558594 58.558594-58.558594h171.441406c32.34375 0 58.558594 26.214844 58.558594 58.558594zm0 0" fill="#e8899e"/><path d="m80.242188 28.890625h-21.683594c-32.339844 0-58.558594 26.21875-58.558594 58.558594v18.007812h77.105469c-.230469-30.9375 1.238281-58.355469 3.136719-76.566406zm0 0" fill="#df5f7d"/><path d="m144.277344 272.949219c-41.097656 0-74.53125-33.433594-74.53125-74.535157 0-41.097656 33.433594-74.53125 74.53125-74.53125 41.101562 0 74.535156 33.433594 74.535156 74.53125 0 41.101563-33.433594 74.535157-74.535156 74.535157zm0-134.066407c-32.824219 0-59.53125 26.707032-59.53125 59.53125 0 32.828126 26.707031 59.535157 59.53125 59.535157 32.828125 0 59.535156-26.707031 59.535156-59.535157 0-32.824218-26.707031-59.53125-59.535156-59.53125zm0 0" fill="#5f75a1"/><g fill="#404656"><path d="m148.136719 230.300781c-4.140625 0-7.5-3.359375-7.5-7.5v-34.742187l-4.871094 4.875c-2.929687 2.925781-7.679687 2.925781-10.609375 0-2.925781-2.929688-2.925781-7.679688 0-10.609375l17.679688-17.675781c2.144531-2.144532 5.371093-2.785157 8.171874-1.625 2.804688 1.160156 4.628907 3.894531 4.628907 6.929687v52.847656c0 4.140625-3.355469 7.5-7.5 7.5zm0 0"/><path d="m78.554688 70.089844h-8.730469c-8.527344 0-15.441407-6.914063-15.441407-15.441406v-39.203126c0-8.53125 6.914063-15.445312 15.441407-15.445312h8.730469c8.527343 0 15.441406 6.914062 15.441406 15.445312v39.203126c0 8.527343-6.914063 15.441406-15.441406 15.441406zm0 0"/><path d="m210.007812 70.089844h8.726563c8.53125 0 15.445313-6.914063 15.445313-15.441406v-39.203126c0-8.53125-6.917969-15.445312-15.445313-15.445312h-8.726563c-8.53125 0-15.445312 6.914062-15.445312 15.445312v39.203126c0 8.527343 6.914062 15.441406 15.445312 15.441406zm0 0"/><path d="m479.71875 303.210938h-262.933594c-5.648437 0-9.710937-5.429688-8.121094-10.847657 3.203126-10.914062 4.828126-22.226562 4.828126-33.601562v-51.582031h269.519531v51.582031c0 11.375 1.625 22.6875 4.828125 33.601562 1.589844 5.417969-2.472656 10.847657-8.121094 10.847657zm0 0"/><path d="m392.03125 503.195312c-2.332031 0-4.707031-.34375-7.054688-1.066406-12.644531-3.894531-19.738281-17.300781-15.847656-29.945312 8.589844-27.894532-4-57.414063-4.128906-57.710938l.050781.113282 43.730469-19.566407c.828125 1.851563 20.121094 45.847657 6.136719 91.261719-3.167969 10.296875-12.648438 16.914062-22.886719 16.914062zm0 0"/></g><path d="m371.210938 463.070312c-.476563 3.03125-1.148438 6.082032-2.082032 9.113282-3.890625 12.644531 3.203125 26.050781 15.847656 29.945312 2.347657.722656 4.71875 1.066406 7.054688 1.066406 10.238281 0 19.71875-6.617187 22.886719-16.914062 1.335937-4.339844 2.367187-8.667969 3.140625-12.945312zm0 0" fill="#b49cdc"/><path d="m309.566406 512c-10.953125 0-20.835937-7.558594-23.347656-18.691406-6.957031-30.851563-1.121094-85.113282-.433594-91.195313 1.484375-13.144531 13.351563-22.597656 26.492188-21.113281 13.144531 1.484375 22.59375 13.34375 21.113281 26.488281-2.242187 19.914063-4.339844 57.960938-.4375 75.285157 2.910156 12.90625-5.191406 25.726562-18.097656 28.636718-1.773438.398438-3.546875.589844-5.289063.589844zm0 0" fill="#404656"/><path d="m286.21875 493.308594c2.511719 11.132812 12.394531 18.691406 23.347656 18.691406 1.746094 0 3.515625-.191406 5.289063-.59375 12.90625-2.910156 21.007812-15.730469 18.101562-28.636719-.691406-3.0625-1.191406-6.78125-1.539062-10.925781l-47.34375 8c.515625 4.792969 1.214843 9.339844 2.144531 13.464844zm0 0" fill="#b49cdc"/><path d="m425.019531 349.558594c0-55.273438-34.367187-100.078125-76.765625-100.078125-42.398437 0-76.769531 44.804687-76.769531 100.078125 0 55.269531 17.667969 87.996094 76.769531 87.996094 59.101563 0 76.765625-32.726563 76.765625-87.996094zm0 0" fill="#b49cdc"/><path d="m276.941406 393.066406c8.941406 28.496094 30.003906 44.488282 71.3125 44.488282s62.371094-15.992188 71.3125-44.488282zm0 0" fill="#404656"/><path d="m256.359375 207.898438c0-16.855469-16.085937-30.519532-35.929687-30.519532-19.839844 0-35.925782 13.664063-35.925782 30.519532 0 16.855468 16.085938 30.519531 35.925782 30.519531 19.84375 0 35.929687-13.664063 35.929687-30.519531zm0 0" fill="#f8dccc"/><path d="m512 207.898438c0-16.855469-16.085938-30.519532-35.925781-30.519532-19.84375 0-35.929688 13.664063-35.929688 30.519532 0 16.855468 16.085938 30.519531 35.929688 30.519531 19.839843 0 35.925781-13.664063 35.925781-30.519531zm0 0" fill="#f0cdb9"/><path d="m508.242188 241.589844c0 11.871094-9.625 21.496094-21.496094 21.496094s-21.496094-9.625-21.496094-21.496094 9.625-21.496094 21.496094-21.496094 21.496094 9.625 21.496094 21.496094zm0 0" fill="#e8899e"/><path d="m231.253906 241.589844c0 11.871094-9.625 21.496094-21.496094 21.496094-11.875 0-21.496093-9.625-21.496093-21.496094s9.621093-21.496094 21.496093-21.496094c11.871094 0 21.496094 9.625 21.496094 21.496094zm0 0" fill="#e8899e"/><path d="m481.363281 207.898438c0-68.914063-59.597656-124.777344-133.113281-124.777344s-133.109375 55.863281-133.109375 124.777344c0 68.914062 59.59375 109.019531 133.109375 109.019531s133.113281-40.105469 133.113281-109.019531zm0 0" fill="#f8dccc"/><path d="m261.425781 113.324219c-28.339843 22.878906-46.285156 56.761719-46.285156 94.574219 0 68.914062 59.59375 109.019531 133.113281 109.019531 5.808594 0 11.53125-.253907 17.144532-.746094-107.722657-30.210937-127.542969-135.910156-103.972657-202.847656zm0 0" fill="#f0cdb9"/><path d="m295.300781 241.316406c0-13.621094-13.863281-24.660156-30.964843-24.660156-17.101563 0-30.964844 11.039062-30.964844 24.660156 0 13.617188 13.863281 24.65625 30.964844 24.65625 17.101562 0 30.964843-11.039062 30.964843-24.65625zm0 0" fill="#f8b8bd"/><path d="m463.132812 241.316406c0-13.621094-13.863281-24.660156-30.964843-24.660156-17.101563 0-30.964844 11.039062-30.964844 24.660156 0 13.617188 13.863281 24.65625 30.964844 24.65625 17.101562 0 30.964843-11.039062 30.964843-24.65625zm0 0" fill="#f8b8bd"/><path d="m373.214844 222.367188c0-15.425782-11.175782-16.875-24.964844-16.875-13.785156 0-24.964844 1.449218-24.964844 16.875 0 15.429687 11.179688 27.9375 24.964844 27.9375 13.789062 0 24.964844-12.507813 24.964844-27.9375zm0 0" fill="#404656"/><path d="m286.878906 220.765625c-4.140625 0-7.5-3.359375-7.5-7.5 0-5.441406-4.425781-9.871094-9.867187-9.871094-5.441407 0-9.871094 4.425781-9.871094 9.871094 0 4.140625-3.355469 7.5-7.496094 7.5-4.144531 0-7.5-3.359375-7.5-7.5 0-13.714844 11.15625-24.871094 24.867188-24.871094 13.714843 0 24.871093 11.15625 24.871093 24.871094-.003906 4.140625-3.359374 7.5-7.503906 7.5zm0 0" fill="#404656"/><path d="m444.359375 220.765625c-4.140625 0-7.5-3.359375-7.5-7.5 0-5.441406-4.425781-9.871094-9.867187-9.871094-5.441407 0-9.867188 4.425781-9.867188 9.871094 0 4.140625-3.359375 7.5-7.5 7.5-4.144531 0-7.5-3.359375-7.5-7.5 0-13.714844 11.15625-24.871094 24.867188-24.871094 13.710937 0 24.867187 11.15625 24.867187 24.871094 0 4.140625-3.355469 7.5-7.5 7.5zm0 0" fill="#404656"/><path d="m474.9375 190.742188c5.320312 1.894531 10.699219-2.789063 9.511719-8.3125-12.773438-59.566407-68.894531-104.425782-136.195313-104.425782-67.308594 0-123.429687 44.867188-136.203125 104.433594-1.171875 5.46875 4.125 10.214844 9.398438 8.34375 14.226562-5.039062 29.757812-16.375 44.0625-36.175781 18.65625 22.058593 78.222656 35.164062 155.316406-15.949219 16.816406 29.816406 36.457031 45.792969 54.109375 52.085938zm0 0" fill="#404656"/><path d="m221.449219 190.78125c10.03125-3.550781 20.703125-10.25 31.144531-20.820312-.40625-23.980469 4.191406-47.066407 12.5625-66.097657-26.878906 18.839844-46.246094 46.582031-53.105469 78.574219-1.171875 5.46875 4.125 10.210938 9.398438 8.34375zm0 0" fill="#353947"/><path d="m260.09375 349.761719c-.335938 0-.675781-.007813-1.015625-.019531-13.214844-.550782-23.488281-11.710938-22.9375-24.929688 1.15625-27.753906 7.898437-48.160156 21.875-66.164062 8.113281-10.449219 23.164063-12.34375 33.613281-4.234376 10.449219 8.113282 12.347656 23.164063 4.234375 33.613282-5.621093 7.242187-10.945312 16.949218-11.851562 38.773437-.539063 12.878907-11.148438 22.960938-23.917969 22.960938zm0 0" fill="#f8dccc"/><path d="m436.410156 349.761719c-12.769531 0-23.378906-10.078125-23.914062-22.957031-.910156-21.828126-6.234375-31.535157-11.855469-38.777344-8.113281-10.453125-6.214844-25.5 4.234375-33.613282 10.449219-8.109374 25.5-6.214843 33.613281 4.234376 13.972657 18.003906 20.71875 38.410156 21.875 66.164062.550781 13.214844-9.71875 24.378906-22.9375 24.929688-.339843.011718-.675781.019531-1.015625.019531zm0 0" fill="#f0cdb9"/></svg>