<svg xmlns="http://www.w3.org/2000/svg" viewBox="0 0 1145 273" width="1145" height="273"><style>tspan { white-space:pre }.shp0 { fill: #334258 } .shp1 { fill: none;stroke: #334258;stroke-width: 9.3 } .shp2 { fill: #334258;stroke: #334258;stroke-width: 9.3 } </style><g id="lineas"><path id="Shape 7" class="shp0" d="M239.14,30.66v-5l-139.53,0v5z" /><path id="Shape 7 copy" class="shp0" d="M212,48.18v-4.03l-112.39,0v4.03z" /><path id="Shape 7 copy copy" class="shp0" d="M212,64.18v-4.03l-112.39,0v4.03z" /></g><g id="lineas copy"><path id="Shape 7 copy" class="shp0" d="M239.14,121.66v-5h-139.53v5z" /><path id="Shape 7 copy copy" class="shp0" d="M212,139.18v-4.03h-112.39v4.03z" /><path id="Shape 7 copy copy copy" class="shp0" d="M212,155.18v-4.03h-112.39v4.03z" /></g><g id="lineas copy copy"><path id="Shape 7 copy copy" class="shp0" d="M239.14,211.66v-5h-139.53v5z" /><path id="Shape 7 copy copy copy" class="shp0" d="M212,229.18v-4.03h-112.39v4.03z" /><path id="Shape 7 copy copy copy copy" class="shp0" d="M212,245.18v-4.03h-112.39v4.03z" /></g><g id="cuadro"><path id="Shape 1" class="shp1" d="M15,80h69v-68h-69z" /><path id="Shape 2" class="shp2" d="M42.59,61.41l1.37,-1.37l-9.59,-9.59l-1.37,1.37zM68,36.4l-1.37,-1.37l-24.72,24.72l1.37,1.37z" /></g><g id="cuadro copy"><path id="Shape 1 copy" class="shp1" d="M15,171h69v-68h-69z" /><path id="Shape 2 copy" class="shp1" d="M42.59,152.41l1.37,-1.37l-9.59,-9.59l-1.37,1.37zM68,127.4l-1.37,-1.37l-24.72,24.72l1.37,1.37z" /></g><g id="cuadro copy copy"><path id="Shape 1 copy copy" class="shp1" d="M15,261h69v-68h-69z" /><path id="Shape 2 copy copy" class="shp1" d="M42.59,242.41l1.37,-1.37l-9.59,-9.59l-1.37,1.37zM68,217.4l-1.37,-1.37l-24.72,24.72l1.37,1.37z" /></g><path id="2GUIA " fill="#334258" d="M473.23 227.17L473.23 270.05L337.08 270.05L337.08 233.56L399.6 142.13Q406.27 131.54 410.71 122.96Q415.15 114.2 417.85 106.9Q420.55 99.6 421.66 93.4Q422.77 87.19 422.77 81.35Q422.77 63.65 417.37 53.62Q412.14 43.58 402.14 43.58Q396.11 43.58 391.67 47.05Q387.22 50.33 384.21 56.35Q381.19 62.19 379.76 70.41Q378.34 78.62 378.34 88.11L333.27 88.11Q333.27 70.04 338.03 54.16Q342.95 38.29 351.83 26.42Q360.88 14.56 373.73 7.63Q386.75 0.69 402.93 0.69Q418.8 0.69 430.86 5.98Q443.08 11.09 451.33 20.77Q459.59 30.44 463.71 44.49Q468 58.54 468 76.06Q468 89.38 464.98 101.98Q461.97 114.39 456.25 126.8Q450.7 139.21 442.61 151.98Q434.51 164.57 424.36 178.44L394.68 227.17L473.23 227.17Z" /><path id="2GUIA " fill="#0f7cff" d="M662.08 130.26L662.08 239.94Q658.43 244.51 652.24 250.35Q646.05 256.19 636.69 261.48Q627.48 266.59 614.94 270.24Q602.41 273.7 586.06 273.7Q566.7 273.7 551.15 266.77Q535.6 259.83 524.49 245.78Q513.38 231.73 507.35 210.38Q501.48 188.84 501.48 159.83L501.48 114.93Q501.48 85.92 507.19 64.57Q512.91 43.03 523.38 28.8Q534.01 14.56 549.09 7.63Q564.32 0.69 583.21 0.69Q602.88 0.69 617.17 6.35Q631.45 12.01 640.97 23.32Q650.49 34.45 655.57 51.06Q660.65 67.49 662.08 89.02L616.69 89.02Q615.74 76.43 613.52 68.03Q611.45 59.64 607.49 54.71Q603.68 49.6 597.96 47.41Q592.41 45.22 584.63 45.22Q575.43 45.22 568.61 49.05Q561.78 52.7 557.18 61.1Q552.74 69.31 550.52 82.63Q548.29 95.77 548.29 114.57L548.29 159.83Q548.29 178.81 550.67 191.95Q553.21 205.09 558.13 213.48Q563.21 221.69 570.83 225.53Q578.45 229.18 588.76 229.18Q594.95 229.18 599.23 228.08Q603.68 226.99 606.69 225.53Q609.87 223.88 611.77 222.24Q613.83 220.6 615.26 219.5L615.26 170.78L582.57 170.78L582.57 130.26L662.08 130.26ZM798.71 4.34L845.36 4.34L845.36 186.84Q845.36 210.01 839.65 226.44Q834.1 242.86 823.94 253.45Q813.94 263.85 799.98 268.78Q786.01 273.7 769.51 273.7Q752.69 273.7 738.56 268.78Q724.6 263.85 714.44 253.45Q704.45 242.86 698.73 226.44Q693.18 210.01 693.18 186.84L693.18 4.34L740.15 4.34L740.15 186.84Q740.15 199.98 742.06 208.19Q743.96 216.4 747.61 221.15Q751.42 225.71 756.81 227.53Q762.37 229.18 769.51 229.18Q776.65 229.18 782.05 227.53Q787.6 225.71 791.25 221.15Q794.9 216.4 796.8 208.19Q798.71 199.98 798.71 186.84L798.71 4.34ZM929.47 4.34L929.47 270.05L882.82 270.05L882.82 4.34L929.47 4.34ZM1094.19 270.05L1081.81 215.67L1018.18 215.67L1005.8 270.05L956.45 270.05L1028.65 4.34L1071.34 4.34L1144.02 270.05L1094.19 270.05ZM1049.92 76.24L1028.34 170.96L1071.5 170.96L1049.92 76.24Z" /></svg>